<svg width="25" height="22" viewBox="0 0 25 22" fill="none" xmlns="http://www.w3.org/2000/svg">
<path d="M25 3.86281C24.8223 4.44956 24.638 5.03631 24.4688 5.63089C23.6693 8.42253 22.872 11.2144 22.0768 14.0065C21.9349 14.5026 21.7142 14.6695 21.1966 14.6695C17.0955 14.6695 12.9939 14.6673 8.89193 14.663C8.63737 14.663 8.50651 14.736 8.39974 14.9674C8.10156 15.6194 8.41927 16.1364 9.13867 16.1364H21.1751C21.2806 16.1314 21.3862 16.138 21.4902 16.1559C21.6676 16.1932 21.8248 16.2953 21.9311 16.4423C22.0373 16.5893 22.0852 16.7707 22.0652 16.9511C22.0452 17.1315 21.9588 17.298 21.8229 17.4181C21.687 17.5381 21.5113 17.6032 21.3301 17.6007C20.5566 17.6072 19.7839 17.6007 19.0111 17.6007C18.9408 17.6007 18.8711 17.6065 18.7689 17.6111C20.0371 17.9905 20.7461 18.9541 20.5918 20.0533C20.4329 21.1857 19.5208 21.9993 18.4095 22C17.3092 22 16.403 21.2027 16.2292 20.0794C16.0579 18.9756 16.7591 18.0107 18.0521 17.6111H11.4362C12.0221 17.7604 12.5124 18.0616 12.8529 18.5721C13.0218 18.8178 13.1379 19.096 13.194 19.389C13.25 19.682 13.2447 19.9834 13.1784 20.2743C12.9648 21.2952 12.0189 22.0293 10.957 21.9987C9.89518 21.9681 9.02148 21.1733 8.85417 20.0781C8.68685 18.9828 9.36588 18.044 10.6966 17.6007C10.1315 17.6007 9.62175 17.6007 9.11133 17.6007C7.33789 17.6007 6.29037 15.9225 7.0931 14.3409C7.17692 14.1883 7.22824 14.0199 7.24381 13.8465C7.25939 13.673 7.23888 13.4981 7.18359 13.333C6.06163 9.45261 4.94987 5.5683 3.84831 1.68008C3.83008 1.61489 3.80794 1.55621 3.77995 1.4695H3.42513C2.61133 1.4695 1.79753 1.4519 0.983723 1.47602C0.527994 1.48971 0.195312 1.35411 0 0.931646V0.540477C0.165365 0.214503 0.390624 -0.0019427 0.78841 1.31461e-05C1.95182 0.00653263 3.11523 1.23502e-05 4.27865 0.00327209C4.6862 0.00327209 4.93555 0.188426 5.05404 0.578291C5.15169 0.897093 5.23633 1.21981 5.32812 1.53991C5.46137 2.00541 5.59592 2.4709 5.73177 2.93639H6.05078C12.0473 2.93639 18.0438 2.93421 24.0404 2.92987C24.4896 2.92987 24.8099 3.06026 25 3.47424V3.86281ZM6.15039 4.4124C6.98806 7.34877 7.8227 10.2741 8.6543 13.1883H20.7891L23.293 4.4124H6.15039ZM11.7663 19.8082C11.7672 19.6629 11.725 19.5207 11.645 19.3996C11.5651 19.2785 11.451 19.1838 11.3173 19.1277C11.1835 19.0716 11.0361 19.0566 10.8938 19.0845C10.7515 19.1124 10.6207 19.182 10.518 19.2845C10.4153 19.387 10.3453 19.5177 10.3169 19.6601C10.2885 19.8025 10.303 19.9502 10.3586 20.0843C10.4141 20.2184 10.5082 20.333 10.6289 20.4135C10.7496 20.494 10.8915 20.5368 11.0365 20.5364C11.2287 20.5337 11.4124 20.4562 11.5486 20.3203C11.6849 20.1844 11.7629 20.0007 11.7663 19.8082ZM18.3965 19.0708C18.2516 19.073 18.1106 19.1183 17.9914 19.2008C17.8722 19.2834 17.7802 19.3995 17.727 19.5345C17.6738 19.6695 17.6619 19.8172 17.6926 19.9591C17.7234 20.1009 17.7955 20.2303 17.8998 20.3311C18.0042 20.4318 18.136 20.4992 18.2786 20.5248C18.4213 20.5504 18.5683 20.533 18.7011 20.4748C18.8338 20.4167 18.9463 20.3203 19.0244 20.198C19.1024 20.0758 19.1424 19.933 19.1393 19.7879C19.1329 19.5952 19.0517 19.4125 18.9131 19.2786C18.7744 19.1447 18.5891 19.0702 18.3965 19.0708Z" fill="white"/>
</svg>
