<svg width="40" height="40" viewBox="0 0 40 40" fill="none" xmlns="http://www.w3.org/2000/svg">
<g clip-path="url(#clip0_50_110)">
<path d="M40 29.1622C39.7217 29.9151 39.1621 30.1817 38.3848 30.1593C37.3984 30.1309 36.4101 30.1593 35.4228 30.1475C35.1748 30.1475 35.0703 30.2218 34.9844 30.462C34.2373 32.5557 32.3623 33.8848 30.209 33.8702C28.0557 33.8556 26.2207 32.546 25.4775 30.46C25.3935 30.2237 25.2871 30.1456 25.0381 30.1466C22.777 30.1563 20.5163 30.1563 18.2558 30.1466C17.9629 30.1466 17.8652 30.254 17.7734 30.5079C17.0664 32.4991 15.3174 33.7755 13.2012 33.8643C11.1885 33.9503 9.27049 32.8155 8.48631 30.9141C8.2119 30.2481 7.88573 30.0977 7.24803 30.1417C6.49803 30.1944 5.74119 30.1671 4.98827 30.1495C4.23534 30.1319 3.70116 29.6612 3.65819 28.9962C3.60741 28.2149 4.12889 27.6573 4.96776 27.629C5.57713 27.6085 6.18846 27.629 6.79881 27.6231H7.99217C8.44334 26.878 8.76366 26.1358 9.26756 25.5518C11.7812 22.6368 16.4941 23.546 17.7637 27.1759C17.8926 27.544 18.0566 27.6348 18.415 27.6319C20.5849 27.615 22.7549 27.615 24.9248 27.6319C25.2285 27.6319 25.3691 27.5587 25.4726 27.252C25.8047 26.2487 26.4454 25.376 27.3033 24.7587C28.1612 24.1414 29.1922 23.8111 30.2491 23.815C31.3059 23.8189 32.3345 24.1568 33.1878 24.7804C34.041 25.404 34.6753 26.2814 35 27.2872C35.0918 27.5655 35.2187 27.6378 35.4883 27.63C36.1367 27.6124 36.7851 27.6241 37.4883 27.6241V27.2179C37.4883 25.3077 37.4941 23.3975 37.4795 21.4884C37.472 21.2741 37.4013 21.0668 37.2764 20.8927C36.8252 20.2735 36.3349 19.6837 35.8779 19.0684C35.8155 18.9731 35.7287 18.8963 35.6265 18.846C35.5243 18.7956 35.4105 18.7737 35.2969 18.7823C32.2571 18.7908 29.2168 18.7927 26.1758 18.7882C25.0654 18.7882 24.6133 18.3399 24.6133 17.2306C24.6133 14.5671 24.6133 11.9037 24.6133 9.24032V8.72469H24.0918C17.8027 8.72469 11.5143 8.72469 5.22655 8.72469C4.99299 8.731 4.75961 8.70704 4.53221 8.6534C3.95995 8.50008 3.61327 7.96004 3.65916 7.34286C3.68103 7.0616 3.80026 6.79676 3.99632 6.59392C4.19239 6.39108 4.45303 6.26293 4.73338 6.23153C4.90139 6.21377 5.07032 6.20627 5.23924 6.20907H25.5039C26.6982 6.20907 27.1299 6.63778 27.1308 7.82039V8.72762H27.5703C29.1162 8.72762 30.6631 8.74813 32.209 8.71981C32.9521 8.70614 33.4267 9.00496 33.7519 9.66414C34.7617 11.7149 35.8027 13.7423 36.8154 15.7911C37.1927 16.5744 37.6604 17.3109 38.209 17.9854C38.6474 18.5157 39.0683 19.0597 39.4785 19.6182C39.6673 19.9058 39.8413 20.2027 40 20.5079V29.1622ZM34.2021 16.2462C34.1922 16.1963 34.1782 16.1473 34.1601 16.0997C33.3789 14.546 32.6055 12.9903 31.8105 11.4444C31.7647 11.3835 31.7058 11.3336 31.6383 11.2982C31.5707 11.2629 31.4961 11.2432 31.4199 11.2403C30.083 11.2247 28.7441 11.2305 27.4062 11.2325C27.3191 11.2374 27.2324 11.2475 27.1465 11.2628V16.2432L34.2021 16.2462ZM30.2471 31.3477C30.576 31.3466 30.9015 31.2808 31.205 31.1539C31.5085 31.027 31.784 30.8416 32.0158 30.6082C32.2477 30.3748 32.4313 30.0981 32.5561 29.7938C32.681 29.4894 32.7447 29.1635 32.7436 28.8346C32.7425 28.5056 32.6767 28.1801 32.5498 27.8766C32.4229 27.5731 32.2375 27.2976 32.0041 27.0658C31.7707 26.8339 31.494 26.6503 31.1897 26.5255C30.8853 26.4006 30.5594 26.3369 30.2305 26.338C28.8369 26.338 27.6914 27.4952 27.7168 28.8702C27.7278 29.533 27.9996 30.1647 28.4732 30.6285C28.9469 31.0922 29.5842 31.3507 30.2471 31.3477ZM15.541 28.8936C15.5514 28.3987 15.415 27.9117 15.1492 27.4941C14.8833 27.0766 14.4998 26.747 14.0469 26.547C13.594 26.347 13.0921 26.2855 12.6044 26.3703C12.1166 26.455 11.6649 26.6822 11.3061 27.0233C10.9472 27.3643 10.6974 27.804 10.5879 28.2868C10.4785 28.7696 10.5145 29.274 10.6912 29.7364C10.868 30.1988 11.1776 30.5986 11.5812 30.8853C11.9847 31.1721 12.4641 31.333 12.959 31.3477C13.2903 31.3589 13.6206 31.304 13.9306 31.1863C14.2405 31.0685 14.5239 30.8902 14.7643 30.6618C15.0046 30.4334 15.1971 30.1594 15.3304 29.8558C15.4638 29.5522 15.5354 29.2252 15.541 28.8936Z" fill="#EA730E"/>
<path d="M6.66586 18.8184C4.97739 18.8184 3.28793 18.8184 1.59848 18.8184C1.391 18.8261 1.18336 18.808 0.980316 18.7647C0.725687 18.6913 0.501115 18.5385 0.339271 18.3287C0.177427 18.1189 0.0867503 17.8629 0.0804322 17.5979C0.0741142 17.333 0.152486 17.073 0.304143 16.8557C0.455801 16.6384 0.672833 16.4751 0.923674 16.3896C1.10989 16.3338 1.30349 16.3065 1.49789 16.3086C4.96664 16.3034 8.43572 16.3034 11.9051 16.3086C12.0737 16.3072 12.2418 16.3275 12.4051 16.3691C12.6865 16.4445 12.9324 16.6163 13.0999 16.8546C13.2674 17.0929 13.3459 17.3825 13.3216 17.6727C13.2973 17.963 13.1717 18.2355 12.9669 18.4425C12.7621 18.6496 12.491 18.7782 12.201 18.8057C12.0455 18.8187 11.8893 18.8239 11.7332 18.8213L6.66586 18.8184Z" fill="#EA730E"/>
<path d="M8.73129 11.3672C10.5116 11.3672 12.2909 11.3614 14.0711 11.3672C14.7996 11.3672 15.3202 11.8419 15.368 12.501C15.3863 12.6731 15.3683 12.847 15.3152 13.0116C15.2621 13.1763 15.175 13.3279 15.0595 13.4568C14.9441 13.5856 14.8029 13.6888 14.6451 13.7597C14.4873 13.8306 14.3164 13.8675 14.1434 13.8682C13.534 13.8887 12.9227 13.875 12.3123 13.875C9.38852 13.875 6.46534 13.875 3.54281 13.875C2.8182 13.875 2.31235 13.5088 2.17563 12.8985C1.99789 12.1114 2.535 11.3887 3.35434 11.3721C4.50961 11.3477 5.66684 11.3624 6.82309 11.3614C7.45915 11.364 8.09522 11.3659 8.73129 11.3672Z" fill="#EA730E"/>
<path d="M6.28604 23.7755C5.33682 23.7755 4.38858 23.7892 3.44034 23.7755C2.55362 23.7599 1.97549 23.0226 2.18057 22.2003C2.32119 21.6319 2.78897 21.2755 3.45791 21.2677C4.50967 21.2559 5.5624 21.2677 6.61514 21.2677C7.4335 21.2677 8.25284 21.2598 9.0712 21.2677C9.88955 21.2755 10.4306 21.7901 10.4384 22.5079C10.4462 23.2257 9.86905 23.7774 9.05459 23.7774C8.13076 23.7813 7.20791 23.7765 6.28604 23.7755Z" fill="#EA730E"/>
</g>
<defs>
<clipPath id="clip0_50_110">
<rect width="40" height="40" fill="white"/>
</clipPath>
</defs>
</svg>
