<svg width="20" height="19" viewBox="0 0 20 19" fill="none" xmlns="http://www.w3.org/2000/svg">
<path d="M1 13V18H19V13" stroke="#EA730E" stroke-width="2" stroke-linejoin="round"/>
<path d="M9.46967 11.5303C9.76256 11.8232 10.2374 11.8232 10.5303 11.5303L15.3033 6.75736C15.5962 6.46447 15.5962 5.98959 15.3033 5.6967C15.0104 5.40381 14.5355 5.40381 14.2426 5.6967L10 9.93934L5.75736 5.6967C5.46447 5.40381 4.98959 5.40381 4.6967 5.6967C4.40381 5.98959 4.40381 6.46447 4.6967 6.75736L9.46967 11.5303ZM9.25 -2.98032e-08L9.25 11L10.75 11L10.75 2.98032e-08L9.25 -2.98032e-08Z" fill="#EA730E"/>
</svg>
