<svg width="40" height="40" viewBox="0 0 40 40" fill="none" xmlns="http://www.w3.org/2000/svg">
<path d="M20.5076 0C21.2488 0.609749 21.9642 1.25237 22.7352 1.8222C24.7148 3.28122 26.9276 4.22989 29.3728 4.5015C30.8381 4.66509 32.3261 4.63926 33.8046 4.6737C34.8222 4.69796 35.2441 5.10264 35.2449 6.12332C35.2449 10.671 35.2378 15.2179 35.2449 19.7648C35.2511 23.2323 34.4465 26.4744 32.6125 29.4378C31.3936 31.4261 29.826 33.1783 27.985 34.6101C26.2928 35.918 24.5026 37.0992 22.7454 38.3218C22.1067 38.7656 21.4343 39.1625 20.7815 39.5875C20.2955 39.9006 19.8086 39.9303 19.3241 39.6032C17.0761 38.0862 14.7764 36.6382 12.5988 35.0249C10.1426 33.2051 8.15214 30.9313 6.74791 28.1854C5.80062 26.3612 5.20755 24.374 5.00007 22.329C4.89362 21.2457 4.84353 20.1522 4.84353 19.0635C4.82631 14.7498 4.83648 10.437 4.83648 6.12332C4.83648 5.10577 5.25994 4.68779 6.27671 4.67605C7.47116 4.66352 8.66874 4.67605 9.86006 4.60482C12.0063 4.47723 14.0038 3.81347 15.8777 2.77557C17.0238 2.13415 18.0828 1.3484 19.029 0.437547C19.1973 0.281001 19.3914 0.144806 19.5769 0H20.5076ZM7.20112 6.99607C7.18625 7.11269 7.17764 7.15261 7.17764 7.1894C7.17764 11.658 7.16433 16.1266 7.1972 20.5953C7.20738 22.0261 7.47507 23.4358 7.90558 24.8048C8.87303 27.8817 10.7328 30.352 13.135 32.4498C15.2085 34.2602 17.5504 35.6856 19.8665 37.1532C19.9247 37.18 19.9882 37.1932 20.0522 37.1917C20.1163 37.1902 20.1791 37.1741 20.236 37.1446C22.5521 35.6824 24.8885 34.2485 26.9675 32.4435C30.8678 29.0519 32.9656 24.8385 32.9162 19.6067C32.881 15.567 32.9092 11.5265 32.9092 7.48684V6.99137C28.0273 7.25359 23.741 5.86032 20.0434 2.68634C16.3325 5.8705 12.0439 7.2528 7.20112 6.99607Z" fill="#EA730E"/>
<path d="M20.049 30.4085C14.274 30.4186 9.53536 25.6933 9.51423 19.9026C9.4931 14.112 14.2607 9.34668 20.049 9.35842C25.8373 9.37016 30.5651 14.1033 30.5643 19.8815C30.5635 25.6596 25.8342 30.3975 20.049 30.4085ZM20.049 28.0689C24.5529 28.0595 28.2333 24.3689 28.2239 19.8721C28.2145 15.3753 24.5247 11.6878 20.0279 11.6972C15.5311 11.7066 11.8436 15.398 11.853 19.8948C11.8624 24.3916 15.5538 28.079 20.0506 28.0689H20.049Z" fill="#EA730E"/>
<path d="M18.849 21.8383C19.1127 21.5393 19.2748 21.3358 19.4572 21.1526C20.9052 19.6988 22.3564 18.2487 23.8107 16.8022C24.5316 16.0876 25.5938 16.3325 25.8458 17.2562C25.9033 17.4512 25.9055 17.6584 25.852 17.8545C25.7985 18.0507 25.6915 18.2281 25.5429 18.3669C23.6017 20.3185 21.6551 22.2646 19.7029 24.2053C19.202 24.7023 18.5374 24.6961 18.031 24.199C16.8642 23.0526 15.7068 21.8954 14.5588 20.7276C14.0626 20.222 14.0727 19.5183 14.5432 19.0549C15.0136 18.5915 15.7055 18.5939 16.2166 19.0917C16.9994 19.8525 17.7649 20.629 18.5327 21.4031C18.629 21.5033 18.7018 21.6332 18.849 21.8383Z" fill="#EA730E"/>
</svg>
