<svg width="134" height="134" viewBox="0 0 134 134" fill="none" xmlns="http://www.w3.org/2000/svg">
<path d="M58.2509 113C57.6443 112.709 56.9823 112.493 56.4402 112.111C55.0716 111.145 54.5806 109.73 54.5851 108.101C54.5851 105.353 54.5851 102.603 54.5851 99.8521V98.7924H48.7709C48.3872 98.808 48.0028 98.7991 47.6201 98.7657C46.8492 98.6657 46.3493 98.0992 46.3826 97.3949C46.3886 97.224 46.4284 97.056 46.4997 96.9005C46.571 96.7451 46.6723 96.6053 46.7979 96.4892C46.9235 96.3731 47.0708 96.2831 47.2314 96.2242C47.3919 96.1654 47.5626 96.1389 47.7334 96.1463C49.6552 96.1175 51.5769 96.133 53.4987 96.1308H54.5251V79.6904C52.8411 79.6904 51.1926 79.6904 49.5441 79.6904C48.8665 79.6904 48.1822 79.7059 47.5068 79.6459C46.8314 79.5859 46.4426 79.1238 46.396 78.4662C46.349 78.1662 46.4202 77.8596 46.5947 77.611C46.7691 77.3624 47.0332 77.1911 47.3313 77.1332C47.7053 77.0504 48.088 77.0131 48.471 77.0221C50.4705 77.0221 52.47 77.0221 54.5362 77.0221V61.026H48.8309C48.5066 61.026 48.1822 61.026 47.8556 61.026C46.9558 60.9883 46.3782 60.4728 46.3715 59.713C46.3649 58.9532 46.9358 58.3911 47.8378 58.38C49.7885 58.3533 51.7391 58.38 53.6898 58.38H54.5273V45.5876H48.6554C48.3311 45.5876 48.0045 45.6053 47.6823 45.572C46.8936 45.4898 46.376 44.9611 46.3715 44.2635C46.3715 43.5303 46.9158 42.9571 47.7468 42.9304C49.313 42.8971 50.8815 42.9193 52.4478 42.9171H54.5184C54.5718 42.3928 54.6095 41.9285 54.6651 41.4686C54.7719 40.4459 55.238 39.4942 55.9804 38.7828C56.7227 38.0713 57.6933 37.6462 58.7196 37.5829C59.164 37.5518 59.6083 37.5495 60.0526 37.5495H96.8636C96.8636 34.8102 97.0014 32.1775 96.8259 29.5648C96.7361 28.2352 96.1262 26.9944 95.1282 26.1112C94.1303 25.228 92.8245 24.7734 91.4938 24.846C88.6656 24.9882 86.6061 27.1587 86.5084 30.178C86.4662 31.3577 86.5084 32.5441 86.4795 33.7327C86.4551 34.4858 86.0352 34.9502 85.262 34.9946C84.4889 35.039 83.929 34.6236 83.9112 33.8838C83.8179 31.3288 83.5091 28.7295 84.8221 26.3434C85.0754 25.8791 85.382 25.4547 85.7108 24.9171C85.49 24.8823 85.2675 24.8586 85.0443 24.846C67.1228 24.846 49.2071 24.846 31.2974 24.846C27.4006 24.846 24.7257 27.5342 24.7235 31.4421C24.7131 55.8628 24.7131 80.2828 24.7235 104.702C24.7235 108.123 26.8741 110.227 30.3688 110.236C36.9916 110.254 43.6144 110.236 50.2373 110.236C50.5616 110.236 50.8882 110.236 51.2104 110.263C52.0013 110.334 52.4634 110.772 52.5012 111.569C52.5367 112.278 52.0168 112.782 51.2148 112.873C51.0087 112.892 50.8018 112.899 50.5949 112.896H30.3777C27.0118 112.896 24.3791 111.545 22.915 108.463C22.3834 107.313 22.1053 106.062 22.0997 104.795C22.0523 80.2561 22.0441 55.7177 22.0752 31.18C22.0654 29.9935 22.2923 28.8169 22.7425 27.7191C23.1927 26.6213 23.8573 25.6242 24.6973 24.7862C25.5374 23.9483 26.536 23.2862 27.635 22.8386C28.7339 22.3911 29.911 22.1672 31.0975 22.18C51.2022 22.1622 71.3062 22.1622 91.4094 22.18C96.1683 22.18 99.5363 25.568 99.5852 30.3446C99.6096 32.7063 99.5852 35.0679 99.5852 37.5518H102.091C103.686 37.5518 105.286 37.5162 106.879 37.5851C109.323 37.6895 111.1 39.4979 111.12 41.9374C111.165 45.7142 111.14 49.5066 111.136 53.2901C111.136 54.3365 110.629 54.9564 109.825 54.9586C109.021 54.9608 108.492 54.3299 108.492 53.3012C108.479 49.7821 108.492 46.2652 108.492 42.746C108.492 40.7465 107.968 40.2155 105.984 40.2155H59.7727C57.8554 40.2155 57.2667 40.7887 57.2667 42.6816C57.2667 64.4111 57.2667 86.1414 57.2667 107.872C57.2667 109.714 57.8865 110.334 59.7105 110.334H106.073C107.877 110.334 108.472 109.743 108.472 107.946C108.472 91.9496 108.472 75.9535 108.472 59.9574C108.457 59.5458 108.493 59.1339 108.579 58.731C108.747 58.0756 109.227 57.7602 109.912 57.8024C110.212 57.8035 110.501 57.917 110.722 58.1205C110.942 58.3241 111.079 58.6029 111.105 58.9021C111.144 59.2547 111.155 59.6097 111.138 59.9641C111.138 75.7513 111.102 91.5386 111.171 107.326C111.185 110.123 110.3 112.074 107.57 112.991L58.2509 113Z" fill="#EA730E"/>
<path d="M82.6382 58.5711H63.4029C60.6258 58.5711 59.5061 57.4358 59.5061 54.6298C59.5061 51.7327 59.5061 48.8371 59.5061 45.943C59.5061 43.5769 60.7391 42.3084 63.1052 42.3061C76.1391 42.2958 89.1729 42.2958 102.207 42.3061C104.568 42.3061 105.788 43.5792 105.793 45.9541C105.793 48.9667 105.793 51.9801 105.793 54.9942C105.793 57.3092 104.544 58.5666 102.238 58.5688C95.7032 58.5777 89.17 58.5785 82.6382 58.5711ZM82.5449 55.905C89.0456 55.905 95.5484 55.9051 102.049 55.9184C102.858 55.9184 103.142 55.6473 103.133 54.8386C103.102 51.9134 103.102 48.9882 103.133 46.063C103.133 45.2721 102.891 44.9522 102.069 44.9522C89.1285 44.9655 76.1857 44.9655 63.2407 44.9522C62.4409 44.9522 62.1455 45.2365 62.1543 46.0452C62.1877 48.8823 62.1543 51.7194 62.1677 54.5565C62.1677 55.9073 62.1677 55.9095 63.4851 55.9095L82.5449 55.905Z" fill="#EA730E"/>
<path d="M96.0239 96.4085C96.0239 93.898 96.0239 91.3897 96.0239 88.8792C96.0239 86.933 97.0903 85.8777 99.0387 85.8644C100.338 85.8644 101.638 85.8444 102.936 85.8644C104.653 85.8933 105.768 86.9753 105.775 88.7082C105.794 93.8758 105.794 99.0434 105.775 104.211C105.775 105.94 104.697 107.044 102.971 107.099C101.585 107.144 100.198 107.144 98.8099 107.099C97.0747 107.041 96.0372 105.946 96.0261 104.211C96.0128 101.605 96.0239 99.0079 96.0239 96.4085ZM98.7343 88.5637V104.382H103.069V88.5637H98.7343Z" fill="#EA730E"/>
<path d="M35.2188 103.44C34.1279 103.44 33.0348 103.456 31.944 103.44C30.3377 103.413 29.2424 102.411 29.2047 100.812C29.1513 98.5709 29.1513 96.3285 29.2047 94.0846C29.2424 92.5539 30.2511 91.5275 31.7863 91.4853C34.0568 91.4216 36.3281 91.4216 38.6001 91.4853C40.2131 91.5297 41.1928 92.6094 41.2106 94.2401C41.2328 96.3937 41.2328 98.5472 41.2106 100.701C41.1906 102.387 40.1131 103.422 38.4069 103.445C37.3427 103.453 36.2785 103.44 35.2188 103.44ZM38.5091 94.2046H31.8973V100.721H38.5091V94.2046Z" fill="#EA730E"/>
<path d="M41.2173 78.3773C41.2173 79.4393 41.2328 80.5035 41.2173 81.5654C41.1906 83.2295 40.1931 84.3381 38.5513 84.3803C36.3103 84.4366 34.0672 84.4366 31.8218 84.3803C30.2666 84.3381 29.2335 83.2695 29.2002 81.7143C29.1528 79.5015 29.1528 77.288 29.2002 75.0737C29.2358 73.4363 30.3399 72.4077 31.9929 72.3921C34.1449 72.3729 36.2992 72.3729 38.4557 72.3921C40.0976 72.4099 41.1529 73.4763 41.2151 75.1092C41.2151 75.167 41.2151 75.227 41.2151 75.2848C41.2165 76.3141 41.2173 77.345 41.2173 78.3773ZM31.904 75.0626V81.6898H38.4935V75.0626H31.904Z" fill="#EA730E"/>
<path d="M35.161 65.7005C34.0701 65.7005 32.9771 65.7316 31.8862 65.7005C30.2644 65.6427 29.2313 64.634 29.198 63.0167C29.1535 60.795 29.1491 58.5889 29.198 56.3761C29.2357 54.7676 30.3088 53.7567 31.924 53.7389C34.1072 53.7167 36.2911 53.7167 38.4757 53.7389C40.1242 53.7589 41.1839 54.812 41.2039 56.4627C41.2306 58.6474 41.2306 60.8313 41.2039 63.0144C41.1817 64.5829 40.1708 65.6249 38.6112 65.6938C37.4626 65.7427 36.3096 65.6938 35.1587 65.6938L35.161 65.7005ZM38.5268 56.436H31.9218V62.9678H38.5268V56.436Z" fill="#EA730E"/>
<path d="M93.5779 90.7655C93.5779 91.5031 93.609 92.2429 93.5779 92.9871C93.5112 94.3201 92.5892 95.391 91.2673 95.4643C89.589 95.5554 87.9069 95.5554 86.2285 95.4643C84.8444 95.3888 83.9158 94.3157 83.858 92.8383C83.8002 91.4253 83.798 90.0056 83.858 88.5927C83.9247 86.9197 85.0377 85.8955 86.7284 85.8733C88.0836 85.8555 89.4411 85.8511 90.7985 85.8733C92.4826 85.9022 93.549 86.9686 93.5956 88.646C93.6156 89.3547 93.5956 90.0612 93.5956 90.7699L93.5779 90.7655ZM86.4951 88.5704C86.4951 89.8746 86.4774 91.1343 86.5174 92.3917C86.5512 92.4992 86.6118 92.5963 86.6934 92.674C86.775 92.7517 86.8749 92.8075 86.9839 92.8361C88.268 92.8738 89.5522 92.8583 90.8607 92.8583V88.5704H86.4951Z" fill="#EA730E"/>
<path d="M69.2593 90.6944C69.2593 91.432 69.2838 92.1718 69.2593 92.916C69.2038 94.3312 68.2485 95.4043 66.831 95.4798C65.2448 95.5643 63.6452 95.5643 62.0566 95.4798C60.5881 95.411 59.5906 94.369 59.5328 92.9005C59.4751 91.4319 59.4751 89.9501 59.5328 88.4771C59.5928 86.9597 60.7036 85.9089 62.2344 85.8711C63.6785 85.8355 65.1241 85.8355 66.5711 85.8711C68.1441 85.9111 69.2149 87.0041 69.2638 88.5682C69.2838 89.2769 69.2638 89.9856 69.2638 90.6921L69.2593 90.6944ZM62.2411 88.546V92.8072H66.5444V88.546H62.2411Z" fill="#EA730E"/>
<path d="M71.7032 90.7099C71.7032 89.9723 71.6765 89.2325 71.7032 88.4882C71.7698 86.9975 72.8007 85.9222 74.2848 85.8711C75.7689 85.82 77.2951 85.8244 78.7992 85.8711C79.4913 85.8693 80.156 86.141 80.6487 86.627C81.1414 87.113 81.4221 87.774 81.4297 88.466C81.503 89.9368 81.5008 91.4164 81.4297 92.8894C81.3608 94.409 80.3477 95.4265 78.8303 95.4932C77.3129 95.5598 75.7622 95.5621 74.2314 95.4932C72.7007 95.4243 71.7565 94.3646 71.6987 92.8405C71.6721 92.134 71.6987 91.4231 71.6987 90.7166L71.7032 90.7099ZM78.7459 88.5682H74.4203V92.8094H78.7459V88.5682Z" fill="#EA730E"/>
<path d="M69.2638 66.1114C69.2638 66.7602 69.2638 67.4111 69.2638 68.0598C69.2327 69.6817 68.2907 70.7903 66.6978 70.8814C65.166 70.9669 63.6306 70.9669 62.0989 70.8814C60.5437 70.797 59.5573 69.7039 59.5151 68.1554C59.4795 66.769 59.4795 65.382 59.5151 63.9942C59.5573 62.4123 60.6015 61.3126 62.1811 61.2482C63.6541 61.1882 65.1337 61.1882 66.6067 61.2482C68.2263 61.3148 69.2349 62.4301 69.2727 64.0764C69.2749 64.754 69.266 65.4338 69.2638 66.1114ZM62.2033 68.2109H66.5445V63.9497H62.2033V68.2109Z" fill="#EA730E"/>
<path d="M100.818 83.205C100.112 83.205 99.4031 83.2228 98.6944 83.205C97.1703 83.1517 96.0728 82.0831 96.0284 80.5701C95.9929 79.126 95.9951 77.682 96.0284 76.2334C96.0617 74.7316 97.0859 73.6518 98.5767 73.6007C100.107 73.5452 101.645 73.5474 103.178 73.6007C104.669 73.6518 105.708 74.7116 105.762 76.2112C105.81 77.6553 105.808 79.0994 105.762 80.5479C105.71 82.1031 104.595 83.1695 103.024 83.2139C102.296 83.2206 101.556 83.205 100.818 83.205ZM103.064 80.5124V76.2912H98.7388V80.5124H103.064Z" fill="#EA730E"/>
<path d="M69.2638 102.254C69.2638 102.934 69.2771 103.613 69.2638 104.291C69.2304 105.895 68.2573 106.999 66.6622 107.081C65.1625 107.157 63.6518 107.157 62.1499 107.081C60.5659 107.006 59.5528 105.902 59.515 104.309C59.4839 102.952 59.4839 101.595 59.515 100.236C59.5528 98.6013 60.5903 97.5015 62.2188 97.4349C63.6629 97.3771 65.107 97.3793 66.5555 97.4349C68.2285 97.4971 69.2371 98.6057 69.266 100.305C69.2749 100.956 69.266 101.605 69.2638 102.254ZM66.5622 100.136H62.2277V104.38H66.5622V100.136Z" fill="#EA730E"/>
<path d="M96.0239 66.0604C96.0239 65.3827 96.0105 64.7029 96.0239 64.0253C96.0594 62.4368 97.0658 61.3215 98.6454 61.2526C100.147 61.186 101.656 61.1838 103.158 61.2526C104.728 61.326 105.741 62.4457 105.773 64.0431C105.801 65.3983 105.801 66.758 105.773 68.1132C105.737 69.7061 104.731 70.8081 103.14 70.8881C101.637 70.9647 100.131 70.9647 98.6277 70.8881C97.0281 70.8036 96.0572 69.7039 96.0239 68.0999C96.0128 67.42 96.0239 66.7402 96.0239 66.0604ZM103.084 63.9342H98.7343V68.1932H103.084V63.9342Z" fill="#EA730E"/>
<path d="M76.5976 97.4216C77.2641 97.4216 77.955 97.3994 78.6326 97.4216C80.3144 97.4882 81.3964 98.5324 81.4497 100.212C81.4912 101.569 81.4912 102.926 81.4497 104.284C81.4009 105.966 80.3389 107.041 78.6549 107.095C77.2708 107.141 75.8822 107.137 74.4959 107.095C72.7563 107.041 71.7254 105.966 71.6988 104.218C71.6766 102.885 71.6743 101.552 71.6988 100.234C71.7321 98.548 72.7763 97.4927 74.4692 97.4216C75.1801 97.3971 75.8889 97.4216 76.5976 97.4216ZM74.407 100.132V104.38H78.7459V100.132H74.407Z" fill="#EA730E"/>
<path d="M76.522 61.2304C77.2307 61.2304 77.9395 61.206 78.646 61.2304C80.2878 61.2926 81.3786 62.3212 81.4431 63.9453C81.4986 65.3605 81.4964 66.7802 81.4431 68.1931C81.3809 69.7816 80.3322 70.8303 78.7304 70.8947C77.2863 70.9547 75.8422 70.9569 74.3937 70.8947C72.7452 70.8258 71.7276 69.7461 71.7032 68.0976C71.6765 66.7424 71.6743 65.3827 71.7032 64.0275C71.7365 62.3479 72.7963 61.2948 74.4892 61.2304C75.1646 61.2082 75.8444 61.2304 76.522 61.2304ZM78.7437 68.2065V63.9364H74.4159V68.2109L78.7437 68.2065Z" fill="#EA730E"/>
<path d="M93.5845 66.1248C93.5845 66.8335 93.6067 67.5422 93.5845 68.2487C93.5334 69.6172 92.6958 70.7148 91.3628 70.8125C89.6005 70.9425 87.8309 70.9425 86.0686 70.8125C84.7533 70.7148 83.9091 69.6372 83.8469 68.2331C83.7891 66.7913 83.7825 65.345 83.8469 63.8987C83.9224 62.3102 85.0021 61.2926 86.604 61.2326C88.0192 61.1904 89.4366 61.1882 90.8518 61.2326C92.4981 61.286 93.5334 62.359 93.5801 63.992C93.6001 64.6985 93.5801 65.4072 93.5801 66.1159L93.5845 66.1248ZM90.8741 63.9653H86.5529V68.2109H90.8741V63.9653Z" fill="#EA730E"/>
<path d="M64.4094 73.583C65.1781 73.583 65.9468 73.5496 66.7111 73.583C68.1663 73.6629 69.2082 74.6938 69.2482 76.1334C69.2912 77.6368 69.2912 79.1416 69.2482 80.6479C69.2355 81.3212 68.9604 81.963 68.4815 82.4365C68.0027 82.9099 67.3578 83.1778 66.6844 83.1828C65.1803 83.2251 63.674 83.2206 62.17 83.1828C61.4806 83.1888 60.8168 82.9223 60.3229 82.4414C59.8291 81.9604 59.5451 81.3038 59.5328 80.6146C59.4706 79.1127 59.4662 77.6042 59.5328 76.1024C59.5995 74.6449 60.6437 73.6585 62.11 73.5763C62.8742 73.543 63.6429 73.5807 64.4094 73.583ZM66.5756 76.2979H62.2211V80.4857H66.5756V76.2979Z" fill="#EA730E"/>
<path d="M93.5934 102.24C93.5934 102.949 93.6156 103.658 93.5934 104.364C93.54 105.92 92.5647 107.001 91.0095 107.079C89.4776 107.159 87.9426 107.159 86.4107 107.079C84.9377 106.999 83.9424 105.984 83.8668 104.504C83.7913 103.025 83.7913 101.552 83.8668 100.081C83.9379 98.5258 84.9777 97.5038 86.544 97.4438C88.0169 97.386 89.4966 97.3816 90.9696 97.4438C92.5625 97.5149 93.5511 98.5969 93.6022 100.205C93.6133 100.883 93.5956 101.561 93.5934 102.24ZM86.5395 104.391H90.8585V100.141H86.5395V104.391Z" fill="#EA730E"/>
<path d="M76.5087 83.2051C75.8 83.2051 75.0913 83.2228 74.3848 83.2051C72.8496 83.1584 71.7565 82.1142 71.7188 80.5924C71.6766 79.1172 71.6743 77.6397 71.7188 76.1668C71.7632 74.6938 72.8007 73.6407 74.3204 73.5918C75.7956 73.5452 77.2708 73.5474 78.746 73.5918C80.3011 73.6318 81.3653 74.6338 81.4386 76.1912C81.5075 77.6642 81.5097 79.1438 81.4386 80.6146C81.3586 82.192 80.2345 83.1828 78.6415 83.214C77.9239 83.2184 77.2085 83.2073 76.5087 83.2051ZM78.7304 80.5102V76.3023H74.4137V80.5102H78.7304Z" fill="#EA730E"/>
<path d="M88.7368 73.583C89.5033 73.583 90.2742 73.5474 91.0385 73.583C92.5314 73.6674 93.5423 74.7071 93.5778 76.2223C93.6134 77.6664 93.6134 79.112 93.5778 80.559C93.5379 82.0853 92.467 83.154 90.9296 83.1895C89.5144 83.2228 88.097 83.2139 86.6818 83.1895C85.0399 83.1695 83.9291 82.1586 83.8558 80.5235C83.7891 79.0816 83.7891 77.6353 83.8558 76.189C83.9335 74.5849 84.9977 73.6118 86.6129 73.5563C87.3216 73.5319 88.0303 73.5563 88.7368 73.5563V73.583ZM86.5396 80.4991H90.8652V76.3001H86.5396V80.4991Z" fill="#EA730E"/>
<path d="M34.1501 43.4059C35.3876 42.1484 36.4496 41.0487 37.5382 39.9734C38.0247 39.4913 38.6135 39.3646 39.2311 39.7512C39.4794 39.8897 39.6706 40.1115 39.7711 40.3774C39.8715 40.6433 39.8746 40.9362 39.7799 41.2042C39.6871 41.4828 39.5277 41.7344 39.3155 41.9373C37.9825 43.2837 36.6629 44.6256 35.3165 45.9364C34.57 46.6628 33.9213 46.6495 33.1504 45.9186C32.4439 45.2521 31.7552 44.5589 31.0842 43.8546C30.4133 43.1504 30.3999 42.3683 30.9754 41.8196C31.5197 41.3042 32.2928 41.3397 32.9393 41.9773C33.3526 42.3839 33.6991 42.866 34.1501 43.4059Z" fill="#EA730E"/>
</svg>
