<svg width="134" height="134" viewBox="0 0 134 134" fill="none" xmlns="http://www.w3.org/2000/svg">
<g clip-path="url(#clip0_49_22)">
<path d="M15 88.6231C15.4372 86.5657 15.7457 84.4709 16.3411 82.4538C17.6114 78.1575 19.9563 74.2561 23.1542 71.1184C38.4611 55.8043 53.7752 40.4929 69.0965 25.1842C72.4305 21.8528 77.0521 21.8367 80.3809 25.1359C84.0958 28.816 87.7759 32.531 91.4829 36.2218C92.1052 36.8414 92.5156 37.4771 91.9684 38.3408C91.3944 39.2474 90.3965 39.3628 89.5784 38.5769C88.5055 37.5549 87.4889 36.4954 86.4455 35.452C83.7901 32.7965 81.1337 30.1419 78.4764 27.4883C76.0838 25.1037 73.4498 25.0957 71.084 27.4614C55.9076 42.6289 40.7348 57.7999 25.5656 72.9746C14.6379 83.9317 15.6974 101.638 27.7945 110.953C37.4266 118.372 51.3236 117.71 60.1591 109.231C66.1057 103.521 71.8565 97.6034 77.6905 91.7721C87.218 82.2481 96.7527 72.7269 106.294 63.2083C107.636 61.8672 108.612 60.408 108.132 58.4956C107.862 57.4379 107.33 56.465 106.587 55.6657C102.979 51.9266 99.2696 48.2868 95.5895 44.6147C95.0959 44.1212 94.6802 43.6142 94.9511 42.8498C95.3615 41.699 96.6114 41.412 97.5288 42.3133C99.1381 43.8798 100.713 45.4811 102.303 47.069C104.484 49.2497 106.673 51.4224 108.843 53.6138C112.112 56.9157 112.12 61.6204 108.824 64.9196C93.5402 80.2176 78.2511 95.5067 62.9567 110.787C58.2573 115.481 52.5682 118.144 45.9617 118.834C45.6983 118.876 45.4376 118.934 45.1811 119.008H40.75C40.4967 118.932 40.2386 118.873 39.9775 118.831C34.3569 118.297 29.0373 116.044 24.743 112.379C20.4488 108.713 17.3885 103.814 15.979 98.3464C15.5579 96.737 15.3219 95.0847 15 93.4512V88.6231Z" fill="#EA730E"/>
<path d="M95.67 16C97.2364 16.3245 98.8297 16.5579 100.364 16.9924C104.96 18.316 109.065 20.9641 112.166 24.6062C115.267 28.2483 117.226 32.723 117.799 37.4717C117.847 37.7608 117.91 38.0473 117.987 38.3301V40.9453C117.474 41.6534 116.841 42.0665 115.935 41.75C115.028 41.4335 114.972 40.6771 114.956 39.8724C114.717 28.5397 105.45 19.2751 94.1008 19.0256C93.2961 19.0068 92.5317 18.9639 92.2232 18.0439C91.9148 17.1239 92.3412 16.5043 93.0279 15.9893L95.67 16Z" fill="#EA730E"/>
<path d="M55.6421 94.339C43.5021 94.3578 35.8602 81.5472 41.5279 71.172C41.9678 70.3674 42.582 69.8148 43.443 70.1903C43.9178 70.3969 44.3443 71.0567 44.4811 71.5905C44.5803 71.9848 44.2129 72.5239 43.9929 72.9665C40.6427 79.7017 43.8668 88.0034 50.9669 90.5114C55.8647 92.2468 60.4219 91.3778 64.1825 87.7406C67.9431 84.1034 69.0402 79.6561 67.4442 74.7368C65.8482 69.8175 62.321 66.9367 57.2059 66.0596C54.6121 65.6143 52.1605 66.1347 49.7786 67.2023C49.2219 67.4566 48.5899 67.492 48.0083 67.3015C47.6167 67.1272 47.2439 66.3815 47.2814 65.9228C47.319 65.4641 47.791 64.9035 48.2256 64.6675C53.676 61.7036 60.9423 62.5217 65.5961 66.698C70.5503 71.1399 72.3018 76.7083 70.4242 83.06C68.5466 89.3821 64.0752 93.0381 57.576 94.1807C56.935 94.271 56.2893 94.3239 55.6421 94.339Z" fill="#EA730E"/>
<path d="M55.3766 71.1104C56.8661 71.1067 58.3234 71.5449 59.5638 72.3696C60.8043 73.1943 61.7722 74.3684 62.3452 75.7434C62.9182 77.1183 63.0705 78.6324 62.7827 80.0939C62.495 81.5555 61.7802 82.8988 60.7288 83.954C59.6773 85.0092 58.3366 85.7287 56.8761 86.0217C55.4156 86.3146 53.901 86.1678 52.524 85.5997C51.147 85.0316 49.9694 84.0679 49.1403 82.8304C48.3112 81.5928 47.8677 80.1372 47.8661 78.6476C47.8572 77.6576 48.0452 76.6757 48.4192 75.7589C48.7931 74.8422 49.3456 74.009 50.0444 73.3076C50.7432 72.6063 51.5745 72.0509 52.4899 71.6737C53.4053 71.2965 54.3865 71.105 55.3766 71.1104ZM55.3927 74.1306C54.797 74.1274 54.2065 74.242 53.6552 74.4677C53.104 74.6933 52.6027 75.0257 52.1802 75.4457C51.7577 75.8657 51.4224 76.3649 51.1935 76.9149C50.9645 77.4648 50.8465 78.0546 50.8462 78.6503C50.8614 79.8365 51.3382 80.9701 52.1756 81.8104C53.0129 82.6508 54.1448 83.1317 55.331 83.1512C55.9272 83.154 56.5181 83.0384 57.0693 82.811C57.6205 82.5835 58.121 82.2488 58.5418 81.8263C58.9626 81.4038 59.2952 80.9019 59.5203 80.3498C59.7455 79.7977 59.8586 79.2063 59.8533 78.61C59.8565 78.0225 59.7434 77.4401 59.5206 76.8964C59.2978 76.3528 58.9697 75.8585 58.5551 75.4422C58.1405 75.0258 57.6476 74.6956 57.1049 74.4705C56.5621 74.2454 55.9802 74.1299 55.3927 74.1306Z" fill="#EA730E"/>
<path d="M92.4083 24.6128C101.67 24.9401 109.234 32.6597 109.395 41.8251C109.417 43.1663 108.966 43.7591 107.933 43.7698C106.901 43.7805 106.439 43.1985 106.375 41.868C106.042 34.9987 101.547 29.5295 94.9404 27.9845C94.0237 27.7962 93.0936 27.6805 92.1588 27.6385C90.8016 27.5446 90.1793 27.0484 90.2329 25.9996C90.2866 24.9508 90.8659 24.586 92.242 24.6128H92.4083Z" fill="#EA730E"/>
<path d="M82.7521 45.5293C84.2673 45.5229 85.7231 46.1187 86.799 47.1857C87.875 48.2526 88.4831 49.7032 88.4895 51.2185C88.4959 52.7337 87.9001 54.1895 86.8332 55.2655C85.7662 56.3414 84.3156 56.9495 82.8003 56.9559C82.0501 56.9591 81.3065 56.8144 80.6121 56.5303C79.9177 56.2461 79.2861 55.8279 78.7534 55.2996C78.2206 54.7713 77.7971 54.1433 77.5071 53.4513C77.217 52.7594 77.0661 52.0171 77.0629 51.2668C77.0597 50.5165 77.2044 49.7729 77.4886 49.0786C77.7728 48.3842 78.1909 47.7526 78.7192 47.2198C79.2475 46.687 79.8756 46.2635 80.5675 45.9735C81.2595 45.6834 82.0018 45.5325 82.7521 45.5293ZM85.4504 51.1917C85.4469 50.4803 85.1609 49.7994 84.6553 49.2989C84.1498 48.7984 83.4661 48.5192 82.7547 48.5228C82.0433 48.5263 81.3625 48.8124 80.862 49.3179C80.3615 49.8234 80.0823 50.5071 80.0859 51.2185C80.0876 51.5707 80.1587 51.9192 80.2952 52.2439C80.4316 52.5687 80.6306 52.8634 80.881 53.1112C81.1313 53.3591 81.428 53.5552 81.7541 53.6883C82.0802 53.8215 82.4293 53.8891 82.7816 53.8874C83.1338 53.8856 83.4822 53.8145 83.807 53.6781C84.1318 53.5416 84.4265 53.3426 84.6743 53.0923C84.9221 52.8419 85.1182 52.5453 85.2514 52.2192C85.3846 51.8931 85.4522 51.5439 85.4504 51.1917Z" fill="#EA730E"/>
<path d="M78.3907 61.3093C78.3949 62.0649 78.2493 62.8138 77.9623 63.5128C77.6753 64.2118 77.2525 64.8469 76.7185 65.3814C76.1844 65.916 75.5497 66.3393 74.851 66.627C74.1523 66.9147 73.4035 67.061 72.6479 67.0574C71.1389 67.0337 69.6988 66.422 68.6342 65.3523C67.5696 64.2827 66.9646 62.8398 66.948 61.3307C66.9487 60.5754 67.0988 59.8277 67.3898 59.1307C67.6808 58.4337 68.1069 57.8011 68.6435 57.2696C69.18 56.738 69.8165 56.3178 70.5162 56.0334C71.2159 55.7489 71.965 55.6057 72.7203 55.6121C73.4674 55.6114 74.2073 55.7584 74.8973 56.0448C75.5873 56.3312 76.2139 56.7513 76.7409 57.2808C77.268 57.8103 77.6851 58.4389 77.9682 59.1302C78.2513 59.8216 78.3949 60.5622 78.3907 61.3093ZM75.3677 61.3441C75.3738 60.9937 75.3102 60.6454 75.1807 60.3197C75.0513 59.9939 74.8584 59.6971 74.6135 59.4464C74.3685 59.1957 74.0762 58.9961 73.7535 58.8591C73.4309 58.7221 73.0842 58.6505 72.7337 58.6484C72.3758 58.6445 72.0206 58.7114 71.6886 58.8452C71.3565 58.979 71.0542 59.1771 70.799 59.4281C70.5437 59.6791 70.3406 59.978 70.2013 60.3078C70.062 60.6375 69.9891 60.9915 69.987 61.3495C70.0056 62.0597 70.2978 62.7352 70.8026 63.235C71.3075 63.7348 71.9858 64.0203 72.6961 64.0318C73.4049 64.0234 74.0819 63.737 74.5816 63.2343C75.0813 62.7317 75.3635 62.0529 75.3677 61.3441Z" fill="#EA730E"/>
<path d="M86.9632 61.151C86.9557 59.6365 87.5502 58.181 88.6159 57.1047C89.6816 56.0285 91.1311 55.4197 92.6456 55.4122C94.1602 55.4048 95.6157 55.9993 96.6919 57.0649C97.7681 58.1306 98.3769 59.5801 98.3844 61.0947C98.3919 62.6092 97.7974 64.0647 96.7317 65.1409C96.2041 65.6738 95.5766 66.0976 94.8852 66.388C94.1938 66.6784 93.4519 66.8297 92.702 66.8334C91.1874 66.8409 89.7319 66.2464 88.6557 65.1808C87.5795 64.1151 86.9707 62.6656 86.9632 61.151ZM89.9942 61.0732C89.9852 61.6056 90.1347 62.1286 90.4239 62.5756C90.7131 63.0227 91.1288 63.3736 91.618 63.5836C92.1073 63.7936 92.648 63.8533 93.1713 63.755C93.6946 63.6567 94.1767 63.4049 94.5564 63.0317C94.9361 62.6584 95.1962 62.1806 95.3034 61.6591C95.4107 61.1376 95.3603 60.5959 95.1587 60.1032C94.9571 59.6104 94.6134 59.1887 94.1713 58.8919C93.7293 58.5951 93.2089 58.4366 92.6765 58.4365C92.3277 58.4319 91.9814 58.4963 91.6576 58.6259C91.3338 58.7556 91.0388 58.9479 90.7895 59.1919C90.5402 59.436 90.3417 59.7268 90.2052 60.0479C90.0687 60.3689 89.997 60.7137 89.9942 61.0625V61.0732Z" fill="#EA730E"/>
<path d="M78.5891 41.3262C78.5965 42.0719 78.4565 42.8117 78.1771 43.5032C77.8976 44.1946 77.4843 44.824 76.9609 45.3551C76.4374 45.8863 75.8142 46.3088 75.1269 46.5983C74.4397 46.8878 73.702 47.0387 72.9562 47.0422C71.8246 47.0571 70.714 46.7352 69.7657 46.1175C68.8174 45.4998 68.0741 44.6141 67.6304 43.573C67.1866 42.5319 67.0623 41.3823 67.2733 40.2704C67.4844 39.1585 68.0212 38.1344 68.8156 37.3283C69.61 36.5222 70.626 35.9704 71.7347 35.7431C72.8434 35.5158 73.9947 35.6232 75.0422 36.0517C76.0897 36.4802 76.9862 37.2104 77.6177 38.1496C78.2493 39.0887 78.5874 40.1945 78.5891 41.3262ZM75.5661 41.3262C75.5665 40.975 75.4972 40.6272 75.3622 40.3029C75.2273 39.9787 75.0293 39.6844 74.7798 39.4372C74.5304 39.19 74.2343 38.9947 73.9089 38.8627C73.5834 38.7307 73.235 38.6645 72.8838 38.6681C72.5316 38.6712 72.1834 38.7437 71.8592 38.8815C71.535 39.0192 71.2411 39.2194 70.9942 39.4707C70.7474 39.7221 70.5525 40.0195 70.4206 40.3462C70.2887 40.6728 70.2225 41.0222 70.2257 41.3745C70.2288 41.7267 70.3014 42.0749 70.4391 42.3991C70.5768 42.7233 70.777 43.0173 71.0284 43.2641C71.2797 43.5109 71.5771 43.7058 71.9038 43.8377C72.2304 43.9696 72.5798 44.0358 72.9321 44.0326C73.2848 44.0317 73.6337 43.9602 73.9583 43.8222C74.2829 43.6843 74.5767 43.4828 74.8221 43.2296C75.0676 42.9763 75.2599 42.6765 75.3877 42.3478C75.5155 42.019 75.5761 41.668 75.5661 41.3155V41.3262Z" fill="#EA730E"/>
<path d="M68.5118 51.3821C68.5261 52.518 68.2023 53.6326 67.5815 54.584C66.9607 55.5354 66.0709 56.2807 65.0254 56.725C63.9798 57.1693 62.8258 57.2927 61.7099 57.0793C60.5941 56.8659 59.567 56.3255 58.7591 55.5267C57.9513 54.728 57.3993 53.707 57.1733 52.5937C56.9473 51.4804 57.0576 50.325 57.49 49.2745C57.9225 48.224 58.6576 47.3258 59.602 46.6943C60.5463 46.0627 61.6571 45.7263 62.7931 45.7278C64.2974 45.7319 65.7399 46.3269 66.8097 47.3846C67.8794 48.4423 68.4907 49.8779 68.5118 51.3821ZM65.4888 51.4223C65.4934 50.706 65.2133 50.0171 64.71 49.5073C64.2068 48.9975 63.5216 48.7084 62.8052 48.7038C62.0888 48.6992 61.4 48.9793 60.8901 49.4826C60.3803 49.9859 60.0913 50.6711 60.0867 51.3875C60.0844 51.7422 60.152 52.0939 60.2856 52.4224C60.4193 52.751 60.6163 53.0501 60.8655 53.3025C61.1147 53.5549 61.4112 53.7558 61.738 53.8937C62.0648 54.0315 62.4156 54.1037 62.7703 54.106C63.125 54.1083 63.4767 54.0406 63.8053 53.907C64.1339 53.7734 64.4329 53.5764 64.6854 53.3272C64.9378 53.078 65.1387 52.7815 65.2766 52.4547C65.4144 52.1278 65.4865 51.777 65.4888 51.4223Z" fill="#EA730E"/>
<path d="M88.2802 71.2552C88.2699 72.3872 87.9237 73.4905 87.2853 74.4254C86.6469 75.3602 85.7452 76.0843 84.6946 76.5058C83.6441 76.9273 82.4919 77.0273 81.3845 76.7929C80.277 76.5586 79.2641 76.0005 78.4743 75.1896C77.6845 74.3787 77.1534 73.3514 76.9484 72.2381C76.7434 71.1249 76.8737 69.9758 77.3228 68.9367C77.7719 67.8976 78.5195 67.0154 79.4709 66.4019C80.4222 65.7884 81.5344 65.4714 82.6662 65.491C84.1735 65.5157 85.6098 66.1357 86.6616 67.2156C87.7134 68.2956 88.2953 69.7478 88.2802 71.2552ZM82.5938 73.9187C83.1301 73.9181 83.6541 73.7581 84.0992 73.4588C84.5443 73.1596 84.8904 72.7347 85.0934 72.2383C85.2964 71.7418 85.3471 71.1962 85.2392 70.6709C85.1313 70.1455 84.8695 69.6641 84.4873 69.2879C84.105 68.9117 83.6195 68.6577 83.0925 68.5582C82.5654 68.4587 82.0207 68.5181 81.5276 68.729C81.0345 68.9399 80.6152 69.2927 80.3231 69.7426C80.031 70.1924 79.8793 70.7189 79.8873 71.2552C79.9006 71.9649 80.1914 72.6411 80.6973 73.139C81.2032 73.6368 81.884 73.9167 82.5938 73.9187Z" fill="#EA730E"/>
</g>
<defs>
<clipPath id="clip0_49_22">
<rect width="103" height="103" fill="white" transform="translate(15 16)"/>
</clipPath>
</defs>
</svg>
