<svg width="134" height="134" viewBox="0 0 134 134" fill="none" xmlns="http://www.w3.org/2000/svg">
<g clip-path="url(#clip0_49_23)">
<path d="M47.2734 121C46.5322 120.25 45.6935 119.573 45.0721 118.735C43.7514 116.946 42.5643 115.048 41.2603 113.251C40.9314 112.846 40.4554 112.589 39.9367 112.535C37.5376 112.418 35.1328 112.429 32.7337 112.348C29.6268 112.245 28.4509 110.189 29.9249 107.472C33.4415 100.994 36.9663 94.5203 40.4996 88.0501C40.6778 87.7831 40.7771 87.4713 40.786 87.1504C40.7948 86.8295 40.7129 86.5126 40.5497 86.2361C39.7054 84.5012 38.2991 83.1028 36.5595 82.2682C34.9913 81.5274 33.4707 80.6898 32.0064 79.7604C29.9361 78.409 28.9692 76.3637 28.8995 73.9088C28.8577 72.6211 28.8996 71.3319 29.0249 70.0496C29.2673 67.6644 28.8159 65.4993 27.3809 63.5377C26.6843 62.5847 26.0768 61.5648 25.4694 60.5506C23.7808 57.7223 23.7975 54.8801 25.4833 52.0547C26.0713 51.071 26.6564 50.0763 27.3391 49.1567C28.8382 47.1421 29.2896 44.9074 29.011 42.4497C28.9081 41.3383 28.8653 40.2221 28.8828 39.106C28.8828 36.2304 30.0754 33.9928 32.5359 32.4909C33.6305 31.8158 34.7668 31.2108 35.9381 30.6797C38.2063 29.6682 39.8587 28.0967 40.8311 25.7951C41.1934 24.934 41.6671 24.1232 42.1018 23.2873C43.8517 19.846 46.7329 18.2716 50.4862 18.7314C54.5405 19.233 58.0877 18.4862 61.3311 15.9059C62.4819 14.9892 64.0674 14.6214 65.4551 14.0028H67.5449C69.8103 14.5768 71.758 15.7833 73.6222 17.1264C75.3648 18.4314 77.5281 19.0467 79.6967 18.854C81.361 18.73 83.0315 18.7105 84.6984 18.7955C85.7325 18.8293 86.7429 19.1137 87.6427 19.6243C88.5426 20.135 89.305 20.8565 89.8644 21.7268C90.7416 23.0226 91.5096 24.3889 92.1605 25.8118C93.0955 27.9731 94.818 29.6976 96.9783 30.6351C98.2758 31.2221 99.5292 31.9019 100.729 32.6693C102.986 34.1099 104.073 36.2471 104.103 38.9054C104.103 40.5048 104.011 42.107 103.931 43.7036C103.833 45.3814 104.287 47.0451 105.223 48.4406C106.101 49.7781 106.979 51.1184 107.759 52.5144C109.152 55.0222 109.152 57.5746 107.759 60.0824C107.132 61.2463 106.431 62.3687 105.661 63.4429C104.176 65.4687 103.71 67.695 103.989 70.1527C104.099 71.2973 104.141 72.4472 104.117 73.5968C104.1 76.3832 102.952 78.5929 100.559 80.0502C99.135 80.9168 97.6498 81.6886 96.1507 82.4159C94.2893 83.3187 93.0856 84.7955 92.297 86.6318C92.1874 87.0031 92.2253 87.4024 92.4029 87.7464C93.4451 89.7499 94.5485 91.7255 95.6129 93.7178C96.1981 94.8101 96.0142 95.6683 95.1392 96.1448C94.2643 96.6213 93.4673 96.273 92.8515 95.1723C92.6816 94.8686 92.5227 94.5593 92.3555 94.2528L90.2462 90.3963C89.048 92.1462 87.5684 93.375 85.5343 93.6927C84.4669 93.8363 83.39 93.8978 82.3131 93.8766C81.0955 93.8766 79.875 93.8097 78.6601 93.7373C76.4978 93.6091 74.7953 94.6178 73.0872 95.8968L84.8906 117.656C85.2473 117.149 85.5204 116.77 85.7851 116.386C86.9442 114.691 88.1564 113.042 89.2459 111.292C90.0818 109.977 91.1601 109.369 92.7038 109.394C95.2117 109.436 97.7195 109.394 100.417 109.394C100.227 108.904 100.16 108.656 100.041 108.433C98.926 106.382 97.8114 104.34 96.6969 102.303C96.1033 101.188 96.2399 100.305 97.0507 99.8285C97.9118 99.3214 98.8146 99.6724 99.4276 100.787C100.698 103.105 101.969 105.421 103.212 107.753C104.454 110.085 103.267 112.225 100.581 112.342C98.1096 112.448 95.638 112.479 93.1664 112.501C92.8597 112.479 92.553 112.545 92.2819 112.69C92.0107 112.835 91.786 113.053 91.6339 113.321C90.444 115.16 89.2264 116.987 87.9223 118.749C87.3009 119.584 86.4622 120.264 85.721 121.014H84.0491C82.968 120.493 82.341 119.579 81.7837 118.551C78.1836 111.878 74.5668 105.214 70.9332 98.5579C70.7549 98.2318 70.571 97.9142 70.376 97.5436C67.7511 99.012 65.1848 98.9619 62.6408 97.5436C62.3928 97.9783 62.2005 98.3071 62.0194 98.6387C58.4137 105.27 54.8136 111.905 51.2191 118.542C50.6618 119.573 50.0237 120.473 48.9537 121.006L47.2734 121ZM80.5688 90.6861C81.3323 90.7335 82.0986 90.7781 82.8621 90.8282C85.2556 90.9926 87.0418 90.1093 88.1313 87.8885C88.7387 86.6374 89.4047 85.4169 90.0428 84.1797C91.0027 82.3063 92.5299 80.784 94.4064 79.8301C95.9166 79.0415 97.4297 78.2613 98.9037 77.4114C100.319 76.595 100.982 75.2909 100.98 73.672C100.98 72.4905 100.98 71.3035 100.854 70.1276C100.576 67.213 101.133 64.5268 102.827 62.1026C103.549 61.08 104.198 60.0072 104.853 58.94C105.914 57.2068 105.926 55.4486 104.87 53.7126C104.237 52.6732 103.599 51.6311 102.897 50.6475C101.141 48.1675 100.559 45.4257 100.86 42.433C100.964 41.2192 101.001 40.0006 100.968 38.7827C100.946 37.3338 100.353 36.1273 99.0988 35.361C97.9197 34.6259 96.699 33.9598 95.4429 33.3659C92.7715 32.1828 90.6367 30.047 89.4548 27.375C88.8787 26.1484 88.2331 24.9557 87.521 23.8027C86.8133 22.6324 85.7433 21.9107 84.35 21.894C82.5416 21.8717 80.7276 21.9107 78.9276 21.986C76.7918 22.0964 74.6764 21.5224 72.8893 20.3475C71.6076 19.5116 70.3119 18.6952 69.005 17.901C67.3749 16.9118 65.7059 16.884 64.0646 17.8648C62.8107 18.6116 61.5819 19.4029 60.3614 20.2054C58.5108 21.4789 56.2904 22.1031 54.0473 21.9804C52.7962 21.908 51.5395 21.8912 50.294 21.7965C47.7639 21.6014 45.8886 22.5293 44.7907 24.8783C44.4508 25.6 44.0328 26.2883 43.7179 27.0239C42.4846 29.9841 40.1293 32.3355 37.167 33.5637C36.1252 34.0407 35.1128 34.5794 34.1353 35.1771C33.4602 35.5527 32.904 36.11 32.5297 36.7857C32.1553 37.4615 31.9779 38.2286 32.0176 39.0001C32.0176 40.1816 32.0371 41.3686 32.1458 42.5445C32.4244 45.4229 31.881 48.0756 30.1952 50.4747C29.4763 51.4974 28.8271 52.5701 28.1695 53.6346C27.0744 55.4012 27.0549 57.1845 28.1528 58.9539C28.7546 59.932 29.3426 60.9212 30.0141 61.8518C31.8337 64.3792 32.455 67.1768 32.129 70.2474C32.0268 71.4269 31.9915 72.6112 32.0231 73.7946C32.0399 75.2854 32.6501 76.5114 33.9402 77.2972C35.027 77.9841 36.1569 78.6003 37.323 79.1418C40.1404 80.343 42.3908 82.5775 43.612 85.3863C44.1697 86.5833 44.8025 87.7439 45.5068 88.861C45.8243 89.4284 46.2872 89.9011 46.848 90.2302C47.4087 90.5593 48.0471 90.733 48.6973 90.7335C50.3302 90.753 51.9686 90.7335 53.5959 90.6415C56.118 90.4635 58.6242 91.1624 60.6902 92.6199C61.7797 93.3639 62.9194 94.0633 64.034 94.746C65.6724 95.7324 67.3331 95.7157 68.9744 94.746C69.749 94.2834 70.5487 93.846 71.2732 93.3082C74.0485 91.2462 77.0885 90.1539 80.5688 90.6861ZM48.1094 117.656C52.1135 110.286 56.0173 103.103 59.9128 95.9219C57.9985 94.4005 56.0118 93.5283 53.6516 93.7679C52.7516 93.8599 51.8432 93.8237 50.9404 93.8905C47.6663 94.1302 44.7573 93.4977 42.7677 90.3852L32.5609 109.174C33.0987 109.21 33.4693 109.247 33.8399 109.255C36.0301 109.308 38.223 109.389 40.4132 109.386C41.8733 109.386 42.9043 109.968 43.7012 111.194C45.0805 113.321 46.5517 115.388 48.1094 117.656Z" fill="#EA730E"/>
<path d="M66.5 23.8724C85.7266 23.8724 100.832 40.672 98.7421 59.7425C97.1455 74.3463 86.203 85.8962 71.6131 88.3511C54.273 91.2713 37.2366 78.983 34.5254 61.6011C33.3829 54.2699 34.5254 47.3316 38.0363 40.789C38.2007 40.4825 38.3623 40.1732 38.549 39.8806C39.1063 39.014 40.0036 38.766 40.7782 39.223C41.5528 39.68 41.6615 40.502 41.263 41.4271C40.246 43.7817 39.0004 46.0777 38.315 48.5298C33.5557 65.555 44.9105 82.8032 62.4178 85.311C78.7075 87.6349 93.6485 76.0906 95.6018 59.6756C97.4687 43.9851 86.3702 29.5178 70.6853 27.3527C61.2754 26.0514 53.0804 28.7599 46.1644 35.269C45.9861 35.4362 45.8189 35.6145 45.635 35.7762C44.7991 36.5034 43.977 36.5341 43.3167 35.8681C42.6563 35.2022 42.673 34.2548 43.4588 33.5609C45.0749 32.1343 46.6688 30.6546 48.4354 29.437C53.8355 25.6864 59.9128 23.9421 66.5 23.8724Z" fill="#EA730E"/>
<path d="M89.1093 52.1104C89.14 53.3532 88.552 54.3006 87.6966 55.1337C85.4228 57.3378 83.1714 59.5697 80.8753 61.7515C80.2623 62.3367 80.0394 62.8661 80.2122 63.755C80.8335 66.965 81.349 70.1945 81.884 73.4184C82.1432 74.9538 81.6834 76.2634 80.4434 77.2136C79.8719 77.6827 79.1716 77.9676 78.435 78.0307C77.6983 78.0939 76.9597 77.9324 76.3167 77.5675C73.3444 76.0424 70.3908 74.4875 67.4557 72.903C67.1666 72.7209 66.8313 72.6254 66.4896 72.6279C66.1479 72.6303 65.814 72.7306 65.5275 72.9169C62.7411 74.4271 59.9267 75.8594 57.1375 77.3557C55.5966 78.1916 54.0724 78.331 52.6234 77.2665C51.1745 76.2021 50.8512 74.7448 51.1745 72.9977C51.7763 69.8211 52.3085 66.6306 52.7906 63.4318C52.8088 63.172 52.7748 62.9111 52.6906 62.6647C52.6063 62.4182 52.4736 62.1911 52.3002 61.9968C50.0636 59.7211 47.7778 57.4808 45.4427 55.2758C44.1749 54.0693 43.5284 52.6956 44.0495 50.9735C44.5901 49.2013 45.922 48.4351 47.7109 48.201C50.8856 47.7886 54.0501 47.3177 57.2044 46.7883C57.4748 46.7275 57.7302 46.6128 57.9552 46.4509C58.1803 46.2891 58.3703 46.0835 58.514 45.8464C60.002 42.9792 61.4175 40.0701 62.8274 37.161C63.5686 35.6257 64.6721 34.6393 66.4498 34.6226C68.2276 34.6059 69.4063 35.5895 70.1697 37.1666C71.563 40.045 73.0119 42.8984 74.3968 45.7796C74.5178 46.0815 74.7227 46.3426 74.9874 46.5317C75.2521 46.7208 75.5655 46.8302 75.8904 46.8468C79.2007 47.2843 82.5026 47.783 85.8018 48.2846C86.7284 48.4008 87.5792 48.856 88.19 49.5625C88.8008 50.269 89.1283 51.1767 89.1093 52.1104ZM54.1838 74.0398C54.1838 74.8395 54.7133 75.0708 55.5771 74.6166C58.4165 73.1454 61.2754 71.7048 64.0702 70.1583C65.7281 69.2332 67.244 69.2332 68.8991 70.1583C71.6995 71.702 74.5473 73.1621 77.395 74.6166C77.5693 74.7054 77.7601 74.7569 77.9553 74.7679C78.1506 74.779 78.346 74.7493 78.5291 74.6807C78.727 74.5748 78.7883 73.998 78.7325 73.6609C78.2087 70.4341 77.6904 67.2046 77.0607 63.9946C76.7319 62.281 77.2 60.9295 78.4539 59.762C80.7722 57.5496 83.0636 55.3111 85.3281 53.0466C85.6067 52.768 85.9495 52.2525 85.8854 51.9321C85.8213 51.6116 85.2306 51.3887 84.8405 51.3274C81.7113 50.8398 78.5821 50.3661 75.4417 49.962C73.6668 49.7363 72.4268 48.9255 71.6466 47.2787C70.2784 44.3863 68.8378 41.5302 67.3889 38.6797C67.2077 38.3202 66.8093 37.8437 66.5056 37.8437C66.2018 37.8437 65.7978 38.3174 65.6167 38.6797C64.1705 41.533 62.7271 44.3891 61.359 47.2787C60.5815 48.9227 59.3471 49.7447 57.5694 49.9732C54.4318 50.38 51.2999 50.8509 48.1707 51.3358C47.7778 51.3971 47.1926 51.6534 47.1174 51.9321C47.0421 52.2107 47.3654 52.7513 47.6524 53.0466C49.9744 55.3538 52.3151 57.6425 54.6743 59.9125C55.7247 60.9268 56.2207 62.1249 55.9867 63.5822C55.7749 64.8863 55.5297 66.1848 55.304 67.4833C54.9288 69.6604 54.5554 71.8459 54.1838 74.0398Z" fill="#EA730E"/>
</g>
<defs>
<clipPath id="clip0_49_23">
<rect width="107" height="107" fill="white" transform="translate(13 14)"/>
</clipPath>
</defs>
</svg>
