<svg width="134" height="134" viewBox="0 0 134 134" fill="none" xmlns="http://www.w3.org/2000/svg">
<path d="M103.832 116H24.6309C24.4591 115.932 24.2899 115.851 24.113 115.8C21.3344 115.02 19.5232 112.696 19.5207 109.799C19.5089 94.1102 19.5089 78.4201 19.5207 62.7283C19.5207 60.4776 20.5437 58.7195 22.4509 57.5297C22.6686 57.4212 22.8486 57.2496 22.9675 57.0375C23.0864 56.8253 23.1388 56.5823 23.1178 56.3399C23.1178 53.1369 25.0401 51.2601 28.2684 51.2424C29.2662 51.2424 30.2665 51.2424 31.2592 51.2424C31.3249 50.9342 31.383 50.7523 31.4007 50.5679C32.0498 44.0002 32.7218 37.4325 33.328 30.88C33.6286 27.6138 35.6671 25.9087 38.9333 26.2472C45.7132 26.9469 52.4982 27.6062 59.2806 28.268C60.3971 28.3792 61.0286 28.9324 60.9629 29.7837C60.8947 30.6855 60.142 31.1376 59.0002 31.0239C52.1209 30.3503 45.2434 29.6767 38.3675 29.0031C36.9125 28.8642 36.2886 29.3568 36.142 30.784C35.5122 36.9677 34.895 43.1523 34.2904 49.3377C34.0564 51.7122 33.824 54.0842 33.5933 56.4536C35.2706 56.7896 35.3059 56.7593 35.46 55.2057C35.9652 50.1537 36.4662 45.1016 36.963 40.0495C37.0969 38.688 37.7208 37.6573 39.0318 37.1269C40.5972 36.5045 41.9357 35.4198 42.8689 34.0173C43.6267 32.8983 44.7078 32.4436 46.0542 32.5775C49.4139 32.9134 52.7735 33.2368 56.1331 33.5727C57.2446 33.6813 57.8584 34.2825 57.7498 35.1313C57.6412 35.98 56.9642 36.4069 55.8174 36.2958C52.6144 35.9826 49.4113 35.6769 46.2184 35.3359C45.9601 35.2836 45.6918 35.3135 45.4513 35.4213C45.2108 35.5291 45.01 35.7094 44.8771 35.9371C43.8334 37.4968 42.3503 38.7117 40.6157 39.4281C39.9488 39.7034 39.7315 40.1076 39.6709 40.7618C39.4183 43.495 39.1329 46.2257 38.8651 48.9588C38.6125 51.4596 38.3852 53.9629 38.1326 56.6001C40.1003 56.6001 41.9848 56.5622 43.8692 56.6178C44.627 56.638 45.0564 56.3803 45.4758 55.7615C53.133 44.4785 60.7954 33.209 68.4627 21.9529C69.3772 20.604 70.3926 19.4825 71.9992 19.005H73.7043C74.2701 19.2703 74.889 19.4623 75.3992 19.8083C84.7725 26.1739 94.1341 32.5488 103.484 38.933C105.638 40.4082 106.116 43.0024 104.691 45.1875C103.555 46.933 102.352 48.633 101.183 50.3557C101.013 50.6083 100.864 50.8609 100.629 51.2474C101.099 51.2474 101.412 51.2323 101.723 51.2474C104.019 51.3838 105.818 52.859 106.225 55.0163C106.353 55.6907 106.26 56.4031 106.333 57.0902C106.35 57.4188 106.477 57.732 106.694 57.9793C108.301 59.3914 108.968 61.1621 108.95 63.284C108.92 67.1034 108.95 70.9228 108.95 74.7421V75.8283C109.407 75.8283 109.746 75.8283 110.087 75.8283C112.247 75.8359 113.484 77.0737 113.484 79.2309C113.484 83.9647 113.484 88.6994 113.484 93.4348C113.484 95.4809 112.239 96.7187 110.185 96.7793C109.791 96.792 109.395 96.7793 108.922 96.7793V97.9464C108.922 101.892 108.94 105.838 108.922 109.783C108.938 111.154 108.495 112.49 107.663 113.579C106.832 114.668 105.661 115.448 104.335 115.795C104.171 115.848 104.004 115.932 103.832 116ZM22.3877 106.007C22.3877 107.644 22.2564 109.195 22.4484 110.703C22.5368 111.382 23.1456 112.193 23.7518 112.554C24.5442 112.986 25.4339 113.207 26.3359 113.196C51.5964 113.226 76.8568 113.234 102.117 113.219C102.496 113.227 102.874 113.213 103.251 113.178C104.618 113.024 105.916 111.958 106.048 110.607C106.192 109.119 106.081 107.606 106.081 106.007H39.5471C39.168 106.02 38.7884 106.011 38.4104 105.979C38.0795 105.94 37.7747 105.78 37.5547 105.53C37.3346 105.28 37.215 104.957 37.2187 104.624C37.2225 104.291 37.3494 103.971 37.575 103.726C37.8007 103.481 38.109 103.328 38.4407 103.297C38.819 103.27 39.1985 103.263 39.5775 103.276H106.091V96.7819H104.911C101.059 96.7819 97.2066 96.8071 93.3544 96.7819C86.8927 96.7313 82.2726 91.9041 82.5858 85.5713C82.8384 80.3878 87.3323 75.9496 92.5359 75.8536C96.7039 75.7778 100.872 75.8309 105.04 75.8258H106.159V69.44H22.3675V103.271H23.4638C25.4847 103.271 27.5055 103.271 29.5263 103.271C30.5368 103.271 31.0975 103.792 31.09 104.643C31.0824 105.494 30.5342 105.967 29.5011 105.994C29.0919 106.007 28.6801 105.994 28.2709 105.994L22.3877 106.007ZM106.159 66.5224V63.4078C106.159 60.5862 104.934 59.3661 102.117 59.3661H26.3359C26.0202 59.3661 25.7019 59.351 25.3887 59.3661C23.9337 59.4874 22.5393 60.5786 22.4004 61.973C22.2539 63.4608 22.3675 64.9739 22.3675 66.5199L106.159 66.5224ZM83.4497 56.59C84.93 56.59 86.3168 56.6203 87.7011 56.5673C88.0235 56.4967 88.3055 56.3026 88.4867 56.0267C90.0882 53.7204 91.6796 51.404 93.218 49.0548C93.3252 48.8671 93.3905 48.6582 93.4092 48.4428C93.428 48.2274 93.3998 48.0104 93.3266 47.807C92.4624 46.0741 92.0951 44.1356 92.2656 42.2067C92.3263 41.5828 92.1115 41.2292 91.6089 40.8881C87.0334 37.7946 82.4688 34.685 77.9152 31.5595C77.7245 31.401 77.4891 31.3061 77.2418 31.288C76.9945 31.2699 76.7477 31.3295 76.536 31.4584C74.8686 32.3156 72.987 32.6668 71.1227 32.4688C70.8339 32.4139 70.5352 32.4517 70.2693 32.577C70.0034 32.7022 69.7839 32.9084 69.6424 33.166C64.5162 40.7307 59.3825 48.2734 54.2411 55.7943C54.0921 56.009 53.9759 56.249 53.7789 56.5951C55.9209 56.5951 57.9089 56.5698 59.8944 56.6077C60.5537 56.6203 60.7356 56.3551 60.8189 55.7463C61.9329 47.4104 71.7517 43.1742 78.5821 48.0545C81.4693 50.1158 83.038 52.9576 83.4472 56.59H83.4497ZM101.183 94.0234C103.989 94.0234 106.798 93.9906 109.604 94.0436C110.466 94.0588 110.746 93.8289 110.739 92.9423C110.696 88.5267 110.696 84.1112 110.739 79.6957C110.739 78.7409 110.415 78.5489 109.541 78.5539C104.237 78.5893 98.9319 78.5539 93.6423 78.5792C92.8544 78.5659 92.0674 78.6396 91.2956 78.799C87.5444 79.6679 84.9401 83.2322 85.3241 86.8823C85.751 90.9619 88.9136 93.9401 92.9451 93.9982C95.6935 94.0512 98.4367 94.0234 101.183 94.0234ZM48.3125 56.4713C49.6109 56.782 50.4521 56.5799 51.1922 55.428C53.4479 51.9295 55.8477 48.5218 58.1919 45.0713C61.3006 40.5092 64.4093 35.9464 67.518 31.3826C68.2885 30.2484 69.2989 29.5487 70.6857 29.7028C72.4184 29.9113 74.1737 29.5927 75.7226 28.7884C76.2238 28.5083 76.794 28.3756 77.3675 28.4055C77.9409 28.4355 78.4942 28.6269 78.9635 28.9576C83.8758 32.2819 88.778 35.6205 93.6701 38.9734C94.1534 39.2848 94.5371 39.7283 94.7757 40.2513C95.0144 40.7743 95.098 41.3547 95.0165 41.9238C94.8144 43.5999 95.1327 45.2975 95.9284 46.7864C96.2439 47.3386 96.391 47.9709 96.3515 48.6056C96.312 49.2403 96.0876 49.8495 95.7061 50.3583C94.8018 51.6887 93.8975 53.0199 92.9931 54.3519C92.5233 55.0441 92.0585 55.7413 91.5609 56.4839C92.8517 56.7744 93.6853 56.5799 94.433 55.423C96.8807 51.6339 99.4851 47.9459 102.011 44.2175C103.085 42.6437 102.956 41.9137 101.407 40.8578L74.4318 22.4708C72.8227 21.3745 72.1331 21.5159 71.0191 23.1503L50.927 52.6342C50.0807 53.8821 49.2244 55.1224 48.3125 56.4713ZM63.5319 56.5193H80.5675C80.3907 52.3488 76.5259 48.7997 72.1988 48.7517C67.7176 48.7037 63.8249 52.1619 63.5294 56.5193H63.5319ZM103.501 56.5622C103.62 55.3219 103.325 54.4328 102.441 54.261C101.256 54.0311 100.013 54.1044 98.7954 54.0665C98.7045 54.0665 98.5807 54.1928 98.5151 54.2888C98.0098 54.9986 97.5425 55.7185 96.9716 56.5622H103.501ZM31.0041 54.0993C30.8654 54.072 30.7255 54.0518 30.5847 54.0387C29.64 54.0387 28.6953 54.0084 27.7531 54.0387C26.389 54.0968 25.6792 55.1199 26.0303 56.585H28.5361C30.8828 56.5951 30.8828 56.5951 31.0142 54.112L31.0041 54.0993Z" fill="#EA730E"/>
<path d="M98.9369 86.3038C98.9394 87.4129 98.6126 88.4976 97.9978 89.4207C97.3831 90.3437 96.5081 91.0635 95.4839 91.4887C94.4596 91.9139 93.3321 92.0254 92.2444 91.8091C91.1567 91.5928 90.1577 91.0584 89.374 90.2737C88.5904 89.489 88.0573 88.4893 87.8425 87.4012C87.6277 86.3132 87.7407 85.1859 88.1673 84.1622C88.5939 83.1385 89.3149 82.2646 90.2387 81.6511C91.1626 81.0376 92.2479 80.7122 93.3569 80.7162C94.0919 80.7105 94.8207 80.8512 95.5008 81.13C96.1809 81.4089 96.7986 81.8204 97.318 82.3405C97.8374 82.8606 98.2481 83.4789 98.526 84.1594C98.8039 84.8398 98.9436 85.5688 98.9369 86.3038ZM93.3468 89.1204C94.0978 89.1198 94.8184 88.8238 95.353 88.2963C95.8875 87.7688 96.1931 87.0522 96.2037 86.3013C96.1871 85.5508 95.882 84.8355 95.3519 84.304C94.8218 83.7725 94.1073 83.4655 93.3569 83.4469C92.6056 83.4516 91.8867 83.7533 91.3571 84.2862C90.8275 84.8191 90.5302 85.5399 90.5302 86.2912C90.5269 86.6626 90.5974 87.031 90.7376 87.3749C90.8778 87.7188 91.0849 88.0315 91.3469 88.2947C91.609 88.5579 91.9207 88.7665 92.264 88.9082C92.6073 89.0499 92.9754 89.1221 93.3468 89.1204Z" fill="#EA730E"/>
</svg>
