<svg width="19" height="29" viewBox="0 0 19 29" fill="none" xmlns="http://www.w3.org/2000/svg">
<path fill-rule="evenodd" clip-rule="evenodd" d="M0 2C0 0.895508 0.895447 0 2 0H17C18.1046 0 19 0.895508 19 2V27C19 28.1045 18.1046 29 17 29H2C0.895447 29 0 28.1045 0 27V2ZM2 4C2 2.89551 2.89545 2 4 2H15C16.1046 2 17 2.89551 17 4V21C17 22.1045 16.1046 23 15 23H4C2.89545 23 2 22.1045 2 21V4ZM9.5 28C10.3284 28 11 27.3286 11 26.5C11 25.6714 10.3284 25 9.5 25C8.67157 25 8 25.6714 8 26.5C8 27.3286 8.67157 28 9.5 28Z" fill="#EA730E"/>
</svg>
