<svg width="48" height="48" viewBox="0 0 48 48" fill="none" xmlns="http://www.w3.org/2000/svg">
<g clip-path="url(#clip0_18_269)">
<path d="M23.7187 0H24.2812C24.5075 0.04125 24.7312 0.09875 24.9587 0.125C26.0425 0.235 27.1437 0.250001 28.2087 0.453751C34.67 1.68625 39.8412 4.97625 43.6287 10.3613C46.2795 14.0858 47.7593 18.5163 47.8787 23.0863C47.9044 23.3316 47.9462 23.5751 48.0037 23.815V24.19C47.9612 24.4638 47.9112 24.7375 47.8787 25.0125C47.715 26.3387 47.6562 27.6875 47.3787 28.9912C45.125 39.75 35.6562 47.5762 24.9125 47.875C24.7011 47.8999 24.4921 47.9417 24.2875 48H23.725C23.4675 47.9575 23.2125 47.9062 22.9537 47.875C21.6575 47.715 20.3412 47.6512 19.0662 47.3875C8.29123 45.1625 0.419977 35.67 0.124977 24.915C0.10248 24.7009 0.0627666 24.489 0.00622559 24.2812V23.7188C0.0487256 23.4762 0.0999756 23.235 0.131226 22.9912C0.297476 21.6487 0.356226 20.285 0.631226 18.9663C2.91248 8.21625 12.3662 0.443749 23.045 0.119999C23.2722 0.0968387 23.4974 0.0567281 23.7187 0ZM14.335 17.5875V17.58C13.835 17.58 13.335 17.58 12.835 17.58C11.9837 17.58 11.7 18.0062 12.0712 18.7875C12.7412 20.1962 13.3575 21.6413 14.1512 22.9788C15.095 24.5725 16.1037 26.1487 17.2612 27.59C19.2712 30.09 21.9775 31.1325 25.175 30.88C25.7762 30.8325 26.1112 30.4463 26.2012 29.7975C26.2685 29.2882 26.3649 28.7832 26.49 28.285C26.6287 27.7438 27.03 27.615 27.49 27.9425C27.69 28.0917 27.8758 28.2591 28.045 28.4425C28.5637 28.9825 29.045 29.5675 29.6025 30.0675C29.9775 30.3962 30.4512 30.7787 30.91 30.8175C32.2904 30.9508 33.6786 30.9829 35.0637 30.9137C36.0362 30.86 36.3462 30.0475 35.8137 29.2025C35.54 28.7496 35.2258 28.3224 34.875 27.9262C34.1162 27.0975 33.3162 26.3012 32.5362 25.4975C32.1125 25.0587 32.0775 24.7662 32.3825 24.24C32.4851 24.0675 32.597 23.9006 32.7175 23.74C33.4837 22.695 34.2775 21.67 35.0125 20.6038C35.3712 20.0758 35.6713 19.5104 35.9075 18.9175C36.2625 18.0312 35.965 17.61 35.0037 17.595C33.6925 17.5738 32.3787 17.5875 31.0675 17.595C30.8627 17.5834 30.6596 17.6379 30.4882 17.7504C30.3167 17.8629 30.1859 18.0275 30.115 18.22C30.0362 18.4075 29.9562 18.595 29.8787 18.7812C29.1937 20.4387 28.3112 21.975 27.075 23.2875C26.9425 23.4275 26.7 23.5637 26.5325 23.5375C26.4075 23.5162 26.2512 23.2425 26.2312 23.0675C26.1642 22.4958 26.1308 21.9206 26.1312 21.345C26.1312 20.3625 26.2037 19.3787 26.1875 18.3975C26.1737 17.59 25.7812 17.1738 24.9812 17.13C23.7987 17.065 22.6062 17.0412 21.4275 17.05C20.9175 17.05 20.395 17.1513 20.03 17.59C19.7325 17.9475 19.795 18.165 20.2337 18.31C20.9537 18.5488 21.2262 18.9025 21.2337 19.6387C21.2412 20.5137 21.255 21.3887 21.2337 22.2637C21.2136 22.6208 21.1507 22.9742 21.0462 23.3163C20.9375 23.6988 20.735 23.7612 20.4287 23.5238C20.2316 23.3712 20.0536 23.1953 19.8987 23C18.8527 21.674 18.0101 20.1994 17.3987 18.625C17.1225 17.92 16.62 17.6025 15.8887 17.5962C15.3662 17.5837 14.85 17.5875 14.335 17.5875Z" fill="#EA730E"/>
</g>
<defs>
<clipPath id="clip0_18_269">
<rect width="48" height="48" fill="white"/>
</clipPath>
</defs>
</svg>
