<svg width="48" height="48" viewBox="0 0 48 48" fill="none" xmlns="http://www.w3.org/2000/svg">
<path d="M25.3125 47.9999H22.6875C22.07 47.9274 21.4513 47.8674 20.8375 47.7812C15.6075 47.0437 11.0662 44.8712 7.28375 41.1799C3.41792 37.4074 1.08208 32.8429 0.276249 27.4862C0.168749 26.7637 0.09125 26.0374 0 25.3124V22.6874C0.07375 22.0549 0.136251 21.4212 0.223751 20.7912C0.901251 15.9637 2.83125 11.6999 6.08375 8.06869C9.80125 3.91869 14.4112 1.33119 19.9137 0.377441C20.8325 0.217441 21.7625 0.127441 22.6875 0.00244141H25.3125C25.4462 0.0396347 25.5824 0.0672057 25.72 0.0849419C29.8525 0.372442 33.6712 1.62494 37.1087 3.92869C43.045 7.90869 46.6088 13.4399 47.7213 20.5162C47.835 21.2374 47.9087 21.9649 48 22.6899V25.3149C47.8963 26.1487 47.82 26.9862 47.6825 27.8149C46.7688 33.2824 44.2837 37.9174 40.2075 41.6687C36.691 44.9489 32.2481 47.0643 27.485 47.7262C26.7625 47.8274 26.0362 47.9087 25.3125 47.9999ZM24.0375 15.1149C21.425 15.2874 18.825 15.4524 16.225 15.6324C15.3154 15.7009 14.447 16.0396 13.7313 16.6049C13.0536 17.0955 12.594 17.8309 12.45 18.6549C11.8438 22.0699 11.855 25.4799 12.36 28.9049C12.5863 30.4499 13.405 31.4712 14.8138 31.9787C15.5775 32.2537 16.415 32.3637 17.23 32.4474C21.9375 32.9262 26.6463 32.8574 31.355 32.4262C32.23 32.3449 33.0837 32.1574 33.8425 31.6849C34.75 31.1249 35.375 30.3749 35.565 29.2574C36.142 25.8968 36.1606 22.4641 35.62 19.0974C35.495 18.2774 35.2638 17.5199 34.6363 16.9274C33.8588 16.1924 32.9388 15.7349 31.8863 15.6524C29.2713 15.4449 26.6537 15.2912 24.0375 15.1149Z" fill="#EA730E"/>
<path d="M21.1788 19.4487L28.59 24L21.1788 28.5512V19.4487Z" fill="#EA730E"/>
</svg>
